<?xml version="1.0" encoding="UTF-8"?>
<svg id="Layer_2" data-name="Layer 2" xmlns="http://www.w3.org/2000/svg" viewBox="0 0 201.22 181.82">
  <defs>
    <style>
      .cls-1 {
        fill: #fff;
      }
    </style>
  </defs>
  <g id="Layer_1-2" data-name="Layer 1">
    <path class="cls-1" d="M201.15,75.64c-.91-17.62-9.75-33.53-24.24-43.62-7.66-5.38-16.61-8.76-25.93-9.82C138.04,7.88,120.27,0,100.81,0S63.6,8.07,50.71,22.17c-9.32,1.05-18.28,4.45-25.96,9.84C12.62,40.45,4.38,53.06,1.53,67.53l-.12,.49-.38,3.33-.05,.39L.03,93.03l-.03,88.79H55.75c13.62,0,26.18-6.65,35.38-18.73,4.16-5.48,7.4-11.79,9.63-18.79h47.52c23.99,0,44.99-19.61,51.08-47.69,1.23-5.22,1.86-10.88,1.86-16.8v-1.21c0-.82,0-1.85-.08-2.96Zm-114.14,59.84c-4.31,18.37-16.87,30.72-31.25,30.72H15.62V93.75l.93-20.64,.3-2.6c2.1-10.46,8.08-19.58,16.85-25.7,1.45-1.02,2.95-1.93,4.49-2.74-3.32,8.04-5.05,16.78-5.05,25.58,0,.93,0,1.98,.07,3.16l.05,.95c.05,.72,.1,1.54,.19,2.4,.1,1.23,.26,2.3,.38,3.16,.12,.82,.24,1.58,.39,2.34,.06,.26,.12,.59,.16,.89l.09,.52,.32,1.38,.02,.07c.07,.28,.14,.56,.21,.84,.07,.31,.15,.63,.23,.93l.09,.36c1.46,5.35,3.66,10.56,6.53,15.49,1.45,2.67,3.1,4.99,4.39,6.72,10.16,13.51,24.8,22.66,41.3,25.88-.16,.86-.34,1.77-.56,2.73Zm98.59-55.67c0,4.7-.49,9.18-1.46,13.32v.05c-4.51,20.9-19.25,35.5-35.86,35.5h-45.72v-42.16l9.63,9.65h18.53l-35.34-35.34-21.74,21.79-1.85,1.86-11.57,11.57h5.18l.24,.12h12.94l9.9-9.9v30.7c-11.87-2.81-22.38-9.68-29.71-19.46-.4-.53-.81-1.04-1.2-1.52-.83-1.03-1.61-2-2.19-3.1l-.08-.15-.26-.36c-2.09-3.85-3.64-7.8-4.63-11.75-.23-.93-.46-1.9-.61-2.57-.07-.4-.14-.8-.22-1.2-.11-.6-.22-1.16-.3-1.77-.12-.77-.23-1.51-.27-2.27v-.12c-.07-.55-.11-1.15-.15-1.73-.02-.35-.05-.68-.08-1.02-.04-.76-.04-1.5-.04-2.29,0-8.3,2-16.5,5.78-23.73l.03-.07c.34-.7,.74-1.44,1.28-2.35l.05-.09c.98-1.83,2.19-3.55,3.24-4.97,2.87-3.83,6.29-7.26,10.15-10.2,9.13-6.95,20.03-10.62,31.5-10.62s23.26,3.95,32.58,11.42c3.44,2.76,6.5,5.92,9.12,9.4l.74,.99h1.23c5.03,0,9.96,.91,14.63,2.69,3.16,1.21,6.13,2.79,8.85,4.69,10.54,7.36,16.95,18.91,17.58,31.71v.05c.05,.63,.05,1.34,.05,2.02v1.21Z"/>
  </g>
</svg>