<?xml version="1.0" encoding="UTF-8"?>
<svg id="Layer_2" data-name="Layer 2" xmlns="http://www.w3.org/2000/svg" viewBox="0 0 686.49 181.82">
  <defs>
    <style>
      .cls-1 {
        fill: #fff;
      }
    </style>
  </defs>
  <g id="Layer_1-2" data-name="Layer 1">
    <g>
      <g>
        <path class="cls-1" d="M245.04,45.82h32.2c13.45,0,23.47,2.81,30.06,8.43,6.59,5.62,9.89,13.13,9.89,22.53s-3.3,16.93-9.89,22.6c-6.59,5.67-16.61,8.5-30.06,8.5h-10.78v35.38h-21.42V45.82Zm21.42,17.9v24.19h10.78c7,0,12.19-.9,15.55-2.7,3.36-1.79,5.04-4.95,5.04-9.47s-1.68-7.65-5.04-9.4c-3.36-1.75-8.55-2.63-15.55-2.63h-10.78Z"/>
        <path class="cls-1" d="M340.95,74.99c7.55-7.51,16.95-11.27,28.19-11.27s20.64,3.76,28.2,11.27c7.55,7.51,11.33,17.11,11.33,28.82s-3.78,21.33-11.33,28.89c-7.56,7.56-16.96,11.33-28.2,11.33s-20.64-3.77-28.19-11.33c-7.56-7.55-11.33-17.18-11.33-28.89s3.77-21.31,11.33-28.82Zm42.43,12.92c-3.78-4.15-8.53-6.22-14.24-6.22s-10.48,2.07-14.3,6.22c-3.82,4.14-5.74,9.44-5.74,15.89s1.91,11.77,5.74,15.96c3.82,4.2,8.59,6.29,14.3,6.29s10.46-2.1,14.24-6.29c3.77-4.19,5.66-9.51,5.66-15.96s-1.89-11.75-5.66-15.89Z"/>
        <path class="cls-1" d="M421.12,39.94h20.18v104.36h-20.18V39.94Z"/>
        <path class="cls-1" d="M495.87,63.72c7.46,0,13.76,2.46,18.87,7.4,5.11,4.93,7.67,12.64,7.67,23.15v49.75l-20.18-.09v-11.51c-5.62,7.74-13.73,11.61-24.33,11.61-6.27,0-11.86-1.88-16.79-5.66-4.93-3.78-7.39-9.03-7.39-15.76,0-8.94,3.08-15.73,9.26-20.39,6.18-4.65,13.64-6.98,22.4-6.98h17v-.83c0-8.11-3.5-12.16-10.5-12.16-3.59,0-7.17,.51-10.71,1.52-3.55,1.02-6.2,2.03-7.95,3.04l-2.63,1.52-7.6-14.79c.37-.28,.88-.62,1.52-1.04,.64-.41,2.05-1.19,4.21-2.35,2.17-1.15,4.44-2.17,6.84-3.04,2.39-.88,5.43-1.66,9.12-2.35,3.68-.69,7.41-1.03,11.19-1.03Zm-9.67,44.92c-8.11,0-12.16,3.59-12.16,10.78,0,2.95,.99,5.28,2.98,6.98,1.98,1.7,4.81,2.56,8.5,2.56,4.79,0,8.78-2.1,11.96-6.29,3.18-4.19,4.77-8.17,4.77-11.95v-2.08h-16.03Z"/>
        <path class="cls-1" d="M579.92,65.52v20.04c-8.57,0-14.86,2.31-18.87,6.91-4.01,4.61-6.01,10-6.01,16.17v35.38h-20.18V67.18h20.18v11.06c2.77-3.96,6.33-7.07,10.71-9.33,4.38-2.26,9.09-3.39,14.17-3.39Z"/>
        <path class="cls-1" d="M595.38,41.88c2.02-1.93,4.61-2.9,7.74-2.9s5.71,.97,7.74,2.9c2.02,1.93,3.04,4.56,3.04,7.88s-1.02,5.94-3.04,7.88c-2.03,1.93-4.61,2.9-7.74,2.9s-5.71-.97-7.74-2.9c-2.03-1.93-3.04-4.56-3.04-7.88s1.01-5.94,3.04-7.88Zm-2.35,25.3h20.18v76.85h-20.18V67.18Z"/>
        <path class="cls-1" d="M686.49,119.84c0,8.1-2.74,14.21-8.22,18.31-5.48,4.1-13.15,6.15-23.01,6.15-5.53,0-10.89-.74-16.1-2.21-5.21-1.47-9-2.95-11.4-4.42l-3.59-2.21,8.29-15.48c.74,.46,1.8,1.09,3.18,1.87,1.38,.78,4.05,1.79,8.02,3.04,3.96,1.24,7.83,1.86,11.61,1.86,4.61,0,7.72-.6,9.33-1.79s2.42-2.81,2.42-4.84-1.41-3.76-4.21-5.19c-2.81-1.43-6.22-2.74-10.23-3.94-4.01-1.2-8.01-2.58-12.02-4.15-4.01-1.56-7.42-3.91-10.23-7.05-2.81-3.13-4.21-6.96-4.21-11.47,0-7.74,2.9-13.73,8.71-17.97,5.8-4.23,12.76-6.36,20.87-6.36,4.98,0,9.79,.76,14.44,2.28,4.65,1.52,8.04,3.07,10.16,4.63l3.18,2.21-7.88,14.93c-.65-.46-1.52-1.03-2.63-1.73-1.11-.69-3.41-1.64-6.91-2.83-3.5-1.2-6.96-1.79-10.37-1.79-6.64,0-9.95,1.93-9.95,5.8,0,1.57,1.4,2.97,4.21,4.21,2.81,1.25,6.22,2.47,10.23,3.67,4,1.2,7.99,2.65,11.96,4.35,3.96,1.7,7.35,4.26,10.16,7.67,2.81,3.41,4.21,7.55,4.21,12.44Z"/>
      </g>
      <path class="cls-1" d="M201.15,75.64c-.91-17.62-9.75-33.53-24.24-43.62-7.66-5.38-16.61-8.76-25.93-9.82C138.04,7.88,120.27,0,100.81,0S63.6,8.07,50.71,22.17c-9.32,1.05-18.28,4.45-25.96,9.84C12.62,40.45,4.38,53.06,1.53,67.53l-.12,.49-.38,3.33-.05,.39L.03,93.03l-.03,88.79H55.75c13.62,0,26.18-6.65,35.38-18.73,4.16-5.48,7.4-11.79,9.63-18.79h47.52c23.99,0,44.99-19.61,51.08-47.69,1.23-5.22,1.86-10.88,1.86-16.8v-1.21c0-.82,0-1.85-.08-2.96Zm-114.14,59.84c-4.31,18.37-16.87,30.72-31.25,30.72H15.62V93.75l.93-20.64,.3-2.6c2.1-10.46,8.08-19.58,16.85-25.7,1.45-1.02,2.95-1.93,4.49-2.74-3.32,8.04-5.05,16.78-5.05,25.58,0,.93,0,1.98,.07,3.16l.05,.95c.05,.72,.1,1.54,.19,2.4,.1,1.23,.26,2.3,.38,3.16,.12,.82,.24,1.58,.39,2.34,.06,.26,.12,.59,.16,.89l.09,.52,.32,1.38,.02,.07c.07,.28,.14,.56,.21,.84,.07,.31,.15,.63,.23,.93l.09,.36c1.46,5.35,3.66,10.56,6.53,15.49,1.45,2.67,3.1,4.99,4.39,6.72,10.16,13.51,24.8,22.66,41.3,25.88-.16,.86-.34,1.77-.56,2.73Zm98.59-55.67c0,4.7-.49,9.18-1.46,13.32v.05c-4.51,20.9-19.25,35.5-35.86,35.5h-45.72v-42.16l9.63,9.65h18.53l-35.34-35.34-21.74,21.79-1.85,1.86-11.57,11.57h5.18l.24,.12h12.94l9.9-9.9v30.7c-11.87-2.81-22.38-9.68-29.71-19.46-.4-.53-.81-1.04-1.2-1.52-.83-1.03-1.61-2-2.19-3.1l-.08-.15-.26-.36c-2.09-3.85-3.64-7.8-4.63-11.75-.23-.93-.46-1.9-.61-2.57-.07-.4-.14-.8-.22-1.2-.11-.6-.22-1.16-.3-1.77-.12-.77-.23-1.51-.27-2.27v-.12c-.07-.55-.11-1.15-.15-1.73-.02-.35-.05-.68-.08-1.02-.04-.76-.04-1.5-.04-2.29,0-8.3,2-16.5,5.78-23.73l.03-.07c.34-.7,.74-1.44,1.28-2.35l.05-.09c.98-1.83,2.19-3.55,3.24-4.97,2.87-3.83,6.29-7.26,10.15-10.2,9.13-6.95,20.03-10.62,31.5-10.62s23.26,3.95,32.58,11.42c3.44,2.76,6.5,5.92,9.12,9.4l.74,.99h1.23c5.03,0,9.96,.91,14.63,2.69,3.16,1.21,6.13,2.79,8.85,4.69,10.54,7.36,16.95,18.91,17.58,31.71v.05c.05,.63,.05,1.34,.05,2.02v1.21Z"/>
    </g>
  </g>
</svg>